font.ufo
<glyph name="asterisk" format="1">
  <advance width="381"/>
  <unicode hex="002A"/>
  <outline>
    <contour>
      <point x="358" y="504" type="line"/>
      <point x="274" y="551" type="line"/>
      <point x="358" y="596" type="line"/>
      <point x="314" y="673" type="line"/>
      <point x="233" y="624" type="line"/>
      <point x="235" y="719" type="line"/>
      <point x="146" y="719" type="line"/>
      <point x="147" y="624" type="line"/>
      <point x="66" y="674" type="line"/>
      <point x="22" y="596" type="line"/>
      <point x="105" y="551" type="line"/>
      <point x="22" y="504" type="line"/>
      <point x="66" y="428" type="line"/>
      <point x="148" y="477" type="line"/>
      <point x="146" y="382" type="line"/>
      <point x="235" y="382" type="line"/>
      <point x="232" y="476" type="line"/>
      <point x="314" y="427" type="line"/>
    </contour>
  </outline>
</glyph>
<glyph name="hyphen" format="1">
  <advance width="375"/>
  <unicode hex="002D"/>
  <outline>
    <contour>
      <point x="55" y="363" type="line"/>
      <point x="55" y="251" type="line"/>
      <point x="320" y="251" type="line"/>
      <point x="320" y="363" type="line"/>
    </contour>
  </outline>
</glyph>
<glyph name="zero" format="1">
  <advance width="704"/>
  <unicode hex="0030"/>
  <note>
    zero
  </note>
  <outline>
    <contour>
      <point x="41" y="351" type="curve" smooth="yes"/>
      <point x="41" y="122"/>
      <point x="151" y="-5"/>
      <point x="352" y="-5" type="curve" smooth="yes"/>
      <point x="552" y="-5"/>
      <point x="663" y="122"/>
      <point x="663" y="351" type="curve" smooth="yes"/>
      <point x="663" y="579"/>
      <point x="552" y="706"/>
      <point x="352" y="706" type="curve" smooth="yes"/>
      <point x="151" y="706"/>
      <point x="41" y="579"/>
    </contour>
    <contour>
      <point x="475" y="351" type="curve" smooth="yes"/>
      <point x="475" y="194"/>
      <point x="438" y="131"/>
      <point x="352" y="131" type="curve" smooth="yes"/>
      <point x="266" y="131"/>
      <point x="228" y="194"/>
      <point x="228" y="351" type="curve" smooth="yes"/>
      <point x="228" y="508"/>
      <point x="266" y="570"/>
      <point x="352" y="570" type="curve" smooth="yes"/>
      <point x="438" y="570"/>
      <point x="475" y="508"/>
    </contour>
  </outline>
</glyph>
<glyph name="two" format="1">
  <advance width="601"/>
  <unicode hex="0032"/>
  <note>
    two
  </note>
  <outline>
    <contour>
      <point x="20" y="603" type="curve"/>
      <point x="90" y="468" type="line"/>
      <point x="154" y="523"/>
      <point x="224" y="557"/>
      <point x="280" y="557" type="curve" smooth="yes"/>
      <point x="329" y="557"/>
      <point x="357" y="536"/>
      <point x="357" y="498" type="curve" smooth="yes"/>
      <point x="357" y="467"/>
      <point x="329" y="422"/>
      <point x="291" y="383" type="curve" smooth="yes"/>
      <point x="42" y="120" type="line"/>
      <point x="42" y="0" type="line"/>
      <point x="568" y="0" type="line"/>
      <point x="568" y="147" type="line"/>
      <point x="277" y="147" type="line"/>
      <point x="416" y="290" type="line" smooth="yes"/>
      <point x="492" y="369"/>
      <point x="548" y="448"/>
      <point x="548" y="524" type="curve" smooth="yes"/>
      <point x="548" y="635"/>
      <point x="447" y="708"/>
      <point x="308" y="708" type="curve" smooth="yes"/>
      <point x="207" y="708"/>
      <point x="110" y="669"/>
    </contour>
  </outline>
</glyph>
<glyph name="three" format="1">
  <advance width="560"/>
  <unicode hex="0033"/>
  <note>
    three
  </note>
  <outline>
    <contour>
      <point x="325" y="418" type="line"/>
      <point x="497" y="593" type="line"/>
      <point x="497" y="699" type="line"/>
      <point x="33" y="699" type="line"/>
      <point x="33" y="558" type="line"/>
      <point x="286" y="558" type="line"/>
      <point x="132" y="401" type="line"/>
      <point x="132" y="303" type="line"/>
      <point x="246" y="303" type="line" smooth="yes"/>
      <point x="313" y="303"/>
      <point x="350" y="275"/>
      <point x="350" y="219" type="curve" smooth="yes"/>
      <point x="351" y="164"/>
      <point x="314" y="132"/>
      <point x="246" y="132" type="curve" smooth="yes"/>
      <point x="184" y="132"/>
      <point x="123" y="162"/>
      <point x="71" y="219" type="curve"/>
      <point x="-2" y="78" type="line"/>
      <point x="62" y="26"/>
      <point x="164" y="-8"/>
      <point x="261" y="-8" type="curve" smooth="yes"/>
      <point x="425" y="-8"/>
      <point x="530" y="86"/>
      <point x="530" y="220" type="curve" smooth="yes"/>
      <point x="530" y="328"/>
      <point x="458" y="396"/>
      <point x="358" y="412" type="curve" smooth="yes"/>
    </contour>
  </outline>
</glyph>
<glyph name="eight" format="1">
  <advance width="643"/>
  <unicode hex="0038"/>
  <note>
    eight
  </note>
  <outline>
    <contour>
      <point x="70" y="524" type="curve" smooth="yes"/>
      <point x="70" y="465"/>
      <point x="107" y="408"/>
      <point x="166" y="375" type="curve"/>
      <point x="85" y="343"/>
      <point x="33" y="274"/>
      <point x="33" y="195" type="curve" smooth="yes"/>
      <point x="33" y="71"/>
      <point x="146" y="-8"/>
      <point x="322" y="-8" type="curve" smooth="yes"/>
      <point x="498" y="-8"/>
      <point x="610" y="72"/>
      <point x="610" y="198" type="curve" smooth="yes"/>
      <point x="610" y="276"/>
      <point x="562" y="343"/>
      <point x="487" y="375" type="curve"/>
      <point x="540" y="405"/>
      <point x="574" y="460"/>
      <point x="574" y="519" type="curve" smooth="yes"/>
      <point x="574" y="635"/>
      <point x="475" y="708"/>
      <point x="321" y="708" type="curve" smooth="yes"/>
      <point x="168" y="708"/>
      <point x="70" y="637"/>
    </contour>
    <contour>
      <point x="420" y="509" type="curve" smooth="yes"/>
      <point x="420" y="461"/>
      <point x="385" y="434"/>
      <point x="322" y="434" type="curve" smooth="yes"/>
      <point x="259" y="434"/>
      <point x="224" y="461"/>
      <point x="224" y="509" type="curve" smooth="yes"/>
      <point x="224" y="559"/>
      <point x="259" y="586"/>
      <point x="322" y="586" type="curve" smooth="yes"/>
      <point x="385" y="586"/>
      <point x="420" y="559"/>
    </contour>
    <contour>
      <point x="438" y="214" type="curve" smooth="yes"/>
      <point x="438" y="157"/>
      <point x="396" y="127"/>
      <point x="322" y="127" type="curve" smooth="yes"/>
      <point x="247" y="127"/>
      <point x="206" y="157"/>
      <point x="206" y="214" type="curve" smooth="yes"/>
      <point x="206" y="270"/>
      <point x="247" y="301"/>
      <point x="322" y="301" type="curve" smooth="yes"/>
      <point x="396" y="301"/>
      <point x="438" y="270"/>
    </contour>
  </outline>
</glyph>
<glyph name="nine" format="1">
  <advance width="634"/>
  <unicode hex="0039"/>
  <note>
    nine
  </note>
  <outline>
    <contour>
      <point x="199" y="466" type="curve" smooth="yes"/>
      <point x="199" y="527"/>
      <point x="237" y="560"/>
      <point x="299" y="560" type="curve" smooth="yes"/>
      <point x="368" y="560"/>
      <point x="401" y="518"/>
      <point x="400" y="468" type="curve"/>
      <point x="401" y="414"/>
      <point x="363" y="375"/>
      <point x="296" y="375" type="curve" smooth="yes"/>
      <point x="234" y="375"/>
      <point x="199" y="408"/>
    </contour>
    <contour>
      <point x="595" y="361" type="curve" smooth="yes"/>
      <point x="595" y="576"/>
      <point x="481" y="709"/>
      <point x="292" y="709" type="curve" smooth="yes"/>
      <point x="133" y="709"/>
      <point x="29" y="615"/>
      <point x="29" y="467" type="curve" smooth="yes"/>
      <point x="29" y="331"/>
      <point x="117" y="239"/>
      <point x="255" y="239" type="curve" smooth="yes"/>
      <point x="332" y="239"/>
      <point x="387" y="267"/>
      <point x="420" y="311" type="curve"/>
      <point x="422" y="202"/>
      <point x="368" y="136"/>
      <point x="259" y="136" type="curve" smooth="yes"/>
      <point x="204" y="136"/>
      <point x="152" y="152"/>
      <point x="112" y="182" type="curve"/>
      <point x="42" y="51" type="line"/>
      <point x="101" y="15"/>
      <point x="191" y="-8"/>
      <point x="270" y="-8" type="curve" smooth="yes"/>
      <point x="468" y="-8"/>
      <point x="595" y="138"/>
    </contour>
  </outline>
</glyph>
<glyph name="bracketleft" format="1">
  <advance width="363"/>
  <unicode hex="005B"/>
  <outline>
    <contour>
      <point x="68" y="742" type="line"/>
      <point x="68" y="-124" type="line"/>
      <point x="346" y="-124" type="line"/>
      <point x="346" y="8" type="line"/>
      <point x="226" y="8" type="line"/>
      <point x="226" y="610" type="line"/>
      <point x="346" y="610" type="line"/>
      <point x="346" y="742" type="line"/>
    </contour>
  </outline>
</glyph>
<glyph name="braceleft" format="1">
  <advance width="359"/>
  <unicode hex="007B"/>
  <outline>
    <contour>
      <point x="344" y="-126.0" type="line"/>
      <point x="344" y="6.0" type="line"/>
      <point x="276" y="6"/>
      <point x="257" y="23"/>
      <point x="257" y="70" type="curve" smooth="yes"/>
      <point x="257" y="187.0" type="line" smooth="yes"/>
      <point x="257.0" y="259.24430108"/>
      <point x="235.123795268" y="294.087348909"/>
      <point x="171.80866" y="308.70132" type="curve"/>
      <point x="235.123795268" y="323.912651091"/>
      <point x="257.0" y="358.75569892"/>
      <point x="257.0" y="431.0" type="curve" smooth="yes"/>
      <point x="257" y="548" type="line" smooth="yes"/>
      <point x="257" y="594"/>
      <point x="276" y="612"/>
      <point x="344" y="612" type="curve"/>
      <point x="344" y="744.0" type="line"/>
      <point x="275" y="744.0" type="line" smooth="yes"/>
      <point x="144" y="744"/>
      <point x="99" y="707"/>
      <point x="99" y="602" type="curve" smooth="yes"/>
      <point x="99.0" y="419.0" type="line" smooth="yes"/>
      <point x="99" y="388"/>
      <point x="88" y="376"/>
      <point x="62" y="376" type="curve" smooth="yes"/>
      <point x="23.0" y="376.0" type="line"/>
      <point x="23.0" y="241.0" type="line"/>
      <point x="62.0" y="241.0" type="line" smooth="yes"/>
      <point x="88" y="241"/>
      <point x="99" y="230"/>
      <point x="99" y="198" type="curve" smooth="yes"/>
      <point x="99.0" y="15.0" type="line" smooth="yes"/>
      <point x="99" y="-89"/>
      <point x="144" y="-126"/>
      <point x="275" y="-126" type="curve" smooth="yes"/>
    </contour>
  </outline>
</glyph>
<glyph name="uni0A05" format="1">
  <advance width="892"/>
  <unicode hex="0A05"/>
  <outline>
    <contour>
      <point x="712" y="692" type="move" name="abvm_bindu"/>
    </contour>
    <contour>
      <point x="712" y="702" type="move" name="abvm_candra"/>
    </contour>
    <contour>
      <point x="712" y="682" type="move" name="abvm"/>
    </contour>
    <contour>
      <point x="824.0" y="0" type="line"/>
      <point x="824.0" y="552" type="line"/>
      <point x="892.0" y="552" type="line"/>
      <point x="892.0" y="692" type="line"/>
      <point x="649" y="692" type="line"/>
      <point x="649" y="436.0" type="line"/>
      <point x="567.11287" y="436.0" type="line"/>
      <point x="541.464843627" y="564.370628596"/>
      <point x="447.526280196" y="631.0"/>
      <point x="342.0" y="631.0" type="curve" smooth="yes"/>
      <point x="297.50353446" y="631.0"/>
      <point x="254.970641263" y="619.218565944"/>
      <point x="218.63754" y="595.10796" type="curve"/>
      <point x="167.64956917" y="659.936477614"/>
      <point x="85.7798774137" y="692.0"/>
      <point x="0.0" y="692.0" type="curve" smooth="yes"/>
      <point x="-20" y="692" type="line"/>
      <point x="-20" y="552" type="line"/>
      <point x="12.0" y="552" type="line" smooth="yes"/>
      <point x="64.171708626" y="552.0"/>
      <point x="114.286057327" y="530.054827465"/>
      <point x="125.99647" y="484.33646" type="curve"/>
      <point x="84.0032294596" y="414.460374182"/>
      <point x="51.1837857821" y="325.583637906"/>
      <point x="53.0" y="193.0" type="curve"/>
      <point x="195.0" y="158" type="line"/>
      <point x="246.146076566" y="251.319157242"/>
      <point x="273.137756566" y="319.678771367"/>
      <point x="275.97504" y="395.80339" type="curve"/>
      <point x="285.712762725" y="454.818520122"/>
      <point x="322.436690031" y="480.0"/>
      <point x="360.0" y="480.0" type="curve" smooth="yes"/>
      <point x="397.483679931" y="480.0"/>
      <point x="424.790619175" y="455.830240867"/>
      <point x="431.77556" y="405.3022" type="curve"/>
      <point x="362.290781403" y="324.109518259"/>
      <point x="334.0" y="216.569777457"/>
      <point x="334.0" y="129.0" type="curve" smooth="yes"/>
      <point x="334" y="112"/>
      <point x="335" y="95"/>
      <point x="337" y="79" type="curve"/>
      <point x="479.0" y="61.0" type="line"/>
      <point x="527.183921856" y="150.484426304"/>
      <point x="557.234208013" y="223.59008488"/>
      <point x="568.70347" y="296" type="curve"/>
      <point x="649" y="296" type="line"/>
      <point x="649" y="0" type="line"/>
    </contour>
  </outline>
</glyph>
<glyph name="uni0A06" format="1">
  <advance width="1205"/>
  <unicode hex="0A06"/>
  <outline>
    <contour>
      <point x="1024" y="692" type="move" name="abvm_bindu"/>
    </contour>
    <contour>
      <point x="1024" y="702" type="move" name="abvm_candra"/>
    </contour>
    <contour>
      <point x="1024" y="682" type="move" name="abvm"/>
    </contour>
    <component base="uni0A05"/>
    <component base="uni0A3E" xOffset="892"/>
  </outline>
</glyph>
<glyph name="uni0A09" format="1">
  <advance width="677"/>
  <unicode hex="0A09"/>
  <outline>
    <contour>
      <point x="711" y="680" type="move" name="abvm_bindu"/>
    </contour>
    <contour>
      <point x="809" y="690" type="move" name="abvm_candra"/>
    </contour>
    <component base="uni0A73"/>
    <component base="uni0A41" xOffset="405"/>
  </outline>
</glyph>
<glyph name="uni0A0F" format="1">
  <advance width="643"/>
  <unicode hex="0A0F"/>
  <outline>
    <contour>
      <point x="461" y="670" type="move" name="_abvm"/>
    </contour>
    <contour>
      <point x="641" y="680" type="move" name="abvm_bindu"/>
    </contour>
    <contour>
      <point x="397" y="2" type="move" name="blwm"/>
    </contour>
    <contour>
      <point x="746" y="690" type="move" name="abvm_candra"/>
    </contour>
    <contour>
      <point x="397" y="30" type="move" name="blwm_caret_1"/>
    </contour>
    <contour>
      <point x="108" y="-54" type="move" name="blwm_nukta"/>
    </contour>
    <contour>
      <point x="461" y="670" type="move" name="abvm"/>
    </contour>
    <contour>
      <point x="400.0" y="422.03283" type="line"/>
      <point x="293.121287002" y="422.0"/>
      <point x="227.856470561" y="477.970161135"/>
      <point x="214.51124" y="552" type="curve"/>
      <point x="400.0" y="552" type="line"/>
    </contour>
    <contour>
      <point x="596" y="28" type="curve"/>
      <point x="561" y="160" type="line"/>
      <point x="505" y="140"/>
      <point x="441" y="127"/>
      <point x="381" y="127" type="curve" smooth="yes"/>
      <point x="304.316272897" y="127.0"/>
      <point x="233.707332986" y="143.70566478"/>
      <point x="195.64121" y="191.69009" type="curve"/>
      <point x="243.248531579" y="245.544483992"/>
      <point x="337.327231661" y="286.081869895"/>
      <point x="498.0" y="287.0" type="curve" smooth="yes"/>
      <point x="575" y="287" type="line"/>
      <point x="575" y="552" type="line"/>
      <point x="643" y="552" type="line"/>
      <point x="643" y="692" type="line"/>
      <point x="524.51903" y="692" type="line"/>
      <point x="504.019020668" y="856.467126891"/>
      <point x="393.738309872" y="955.0"/>
      <point x="214.0" y="955.0" type="curve" smooth="yes"/>
      <point x="168" y="955"/>
      <point x="122" y="948"/>
      <point x="81" y="933" type="curve"/>
      <point x="115.0" y="803.0" type="line"/>
      <point x="156" y="812"/>
      <point x="196" y="817"/>
      <point x="232" y="817" type="curve" smooth="yes"/>
      <point x="331.165155262" y="817.0"/>
      <point x="374.332692643" y="775.343235479"/>
      <point x="390.8478" y="692" type="curve"/>
      <point x="-20" y="692" type="line"/>
      <point x="-20" y="552" type="line"/>
      <point x="39.80035" y="552" type="line"/>
      <point x="52.5370246733" y="479.235089499"/>
      <point x="108.027533201" y="412.91537863"/>
      <point x="192.02602" y="371.15952" type="curve"/>
      <point x="113.946090109" y="335.077359878"/>
      <point x="56.5728575129" y="283.701197521"/>
      <point x="24.0" y="230.0" type="curve"/>
      <point x="70" y="63"/>
      <point x="240" y="-15"/>
      <point x="397" y="-15" type="curve" smooth="yes"/>
      <point x="467" y="-15"/>
      <point x="537" y="0"/>
    </contour>
  </outline>
</glyph>
<glyph name="uni0A16" format="1">
  <advance width="707"/>
  <unicode hex="0A16"/>
  <outline>
    <contour>
      <point x="527" y="680" type="move" name="abvm_bindu"/>
    </contour>
    <contour>
      <point x="553" y="0" type="move" name="blwm"/>
    </contour>
    <contour>
      <point x="527" y="690" type="move" name="abvm_candra"/>
    </contour>
    <contour>
      <point x="336" y="30" type="move" name="blwm_caret_1"/>
    </contour>
    <contour>
      <point x="94" y="0" type="move" name="blwm_nukta"/>
    </contour>
    <contour>
      <point x="527" y="670" type="move" name="abvm"/>
    </contour>
    <contour>
      <point x="639" y="0" type="line"/>
      <point x="639" y="552" type="line"/>
      <point x="707.0" y="552" type="line"/>
      <point x="707.0" y="692" type="line"/>
      <point x="464.0" y="692" type="line"/>
      <point x="464.0" y="494.0" type="line"/>
      <point x="297.09967" y="494.0" type="line"/>
      <point x="272.061215294" y="593.382307802"/>
      <point x="179.472756444" y="692.0"/>
      <point x="29.0" y="692.0" type="curve" smooth="yes"/>
      <point x="0" y="692" type="line"/>
      <point x="0" y="552" type="line"/>
      <point x="36" y="552" type="line" smooth="yes"/>
      <point x="104" y="552"/>
      <point x="132" y="508"/>
      <point x="132" y="455" type="curve" smooth="yes"/>
      <point x="132" y="396"/>
      <point x="98" y="361"/>
      <point x="39" y="323" type="curve"/>
      <point x="64" y="165"/>
      <point x="199" y="83"/>
      <point x="317" y="83" type="curve" smooth="yes"/>
      <point x="378.428297038" y="83.0"/>
      <point x="425.565081601" y="91.5749074845"/>
      <point x="464.0" y="106.43259" type="curve"/>
      <point x="464.0" y="0" type="line"/>
    </contour>
    <contour>
      <point x="315.0" y="224.0" type="curve" smooth="yes"/>
      <point x="255.694055737" y="224.0"/>
      <point x="226.30508099" y="243.836251528"/>
      <point x="211.25643" y="266.26827" type="curve"/>
      <point x="240.999412752" y="287.016104241"/>
      <point x="269.116693982" y="315.370357122"/>
      <point x="286.43161" y="354.0" type="curve"/>
      <point x="464.0" y="354.0" type="line"/>
      <point x="464.0" y="302.92732" type="line"/>
      <point x="423.899103665" y="241.944515714"/>
      <point x="359.253804268" y="224.0"/>
    </contour>
  </outline>
</glyph>
<glyph name="uni0A1A" format="1">
  <advance width="734"/>
  <unicode hex="0A1A"/>
  <outline>
    <contour>
      <point x="551" y="680" type="move" name="abvm_bindu"/>
    </contour>
    <contour>
      <point x="457" y="0" type="move" name="blwm"/>
    </contour>
    <contour>
      <point x="551" y="690" type="move" name="abvm_candra"/>
    </contour>
    <contour>
      <point x="457" y="30" type="move" name="blwm_caret_1"/>
    </contour>
    <contour>
      <point x="94" y="0" type="move" name="blwm_nukta"/>
    </contour>
    <contour>
      <point x="571" y="670" type="move" name="abvm"/>
    </contour>
    <contour>
      <point x="457.0" y="-15.0" type="curve" smooth="yes"/>
      <point x="564" y="-15"/>
      <point x="665" y="44"/>
      <point x="665" y="174" type="curve"/>
      <point x="665" y="552" type="line"/>
      <point x="734.0" y="552" type="line"/>
      <point x="734.0" y="692" type="line"/>
      <point x="0" y="692" type="line"/>
      <point x="0" y="552" type="line"/>
      <point x="491.0" y="552" type="line"/>
      <point x="491.0" y="418.0" type="line"/>
      <point x="268.92623" y="418.0" type="line"/>
      <point x="221.225261902" y="457.928471611"/>
      <point x="119.601888063" y="458.802343755"/>
      <point x="42.0" y="449.0" type="curve"/>
      <point x="16" y="316" type="line"/>
      <point x="47.2533915713" y="295.164405619"/>
      <point x="84.1671039156" y="283.680645559"/>
      <point x="121.12513" y="278.99668" type="curve"/>
      <point x="136.826727851" y="110.808502496"/>
      <point x="313.778996506" y="-15.0"/>
    </contour>
    <contour>
      <point x="435" y="127" type="curve" smooth="yes"/>
      <point x="356.371952774" y="127.0"/>
      <point x="299.961797055" y="199.449646218"/>
      <point x="298.05012" y="278" type="curve"/>
      <point x="491.0" y="278" type="line"/>
      <point x="491.0" y="197.0" type="line"/>
      <point x="491" y="157"/>
      <point x="485" y="127"/>
    </contour>
  </outline>
</glyph>
<glyph name="uni0A1D" format="1">
  <advance width="675"/>
  <unicode hex="0A1D"/>
  <outline>
    <contour>
      <point x="515" y="680" type="move" name="abvm_bindu"/>
    </contour>
    <contour>
      <point x="249" y="-79" type="move" name="blwm"/>
    </contour>
    <contour>
      <point x="515" y="690" type="move" name="abvm_candra"/>
    </contour>
    <contour>
      <point x="337" y="-20" type="move" name="blwm_caret_1"/>
    </contour>
    <contour>
      <point x="49" y="-36" type="move" name="blwm_nukta"/>
    </contour>
    <contour>
      <point x="535" y="670" type="move" name="abvm"/>
    </contour>
    <contour>
      <point x="329.0" y="439.0" type="curve" smooth="yes"/>
      <point x="281.562768474" y="439.0"/>
      <point x="238.286577878" y="474.784951997"/>
      <point x="231.81641" y="552" type="curve"/>
      <point x="453.36145" y="552" type="line"/>
      <point x="433.076499072" y="477.677466505"/>
      <point x="378.515806068" y="439.0"/>
    </contour>
    <contour>
      <point x="337" y="-79" type="line"/>
      <point x="349.87055" y="15.15821" type="line"/>
      <point x="528.630026265" y="19.2744529786"/>
      <point x="625.0" y="109.458119399"/>
      <point x="625.0" y="213.0" type="curve" smooth="yes"/>
      <point x="625.0" y="277.832140645"/>
      <point x="587.159498623" y="329.565646199"/>
      <point x="507.13311" y="371.91227" type="curve"/>
      <point x="584.720690744" y="409.68635113"/>
      <point x="620.410456341" y="480.881460552"/>
      <point x="627.80662" y="552" type="curve"/>
      <point x="675" y="552" type="line"/>
      <point x="675" y="692" type="line"/>
      <point x="0" y="692" type="line"/>
      <point x="0" y="552" type="line"/>
      <point x="56.996" y="552" type="line"/>
      <point x="64.7847772116" y="512.067879913"/>
      <point x="90.1798687952" y="474.029124645"/>
      <point x="126.0" y="440.0" type="curve"/>
      <point x="72" y="440.0" type="line"/>
      <point x="76" y="325" type="line"/>
      <point x="325" y="325" type="line" smooth="yes"/>
      <point x="411" y="325"/>
      <point x="455" y="288"/>
      <point x="455" y="242" type="curve" smooth="yes"/>
      <point x="455.0" y="200.310699467"/>
      <point x="419.281278746" y="149.221735446"/>
      <point x="320.50439" y="146.16587" type="curve"/>
      <point x="291.677974677" y="178.300636784"/>
      <point x="246.643016526" y="196.007095042"/>
      <point x="210.0" y="207.0" type="curve" smooth="yes"/>
      <point x="173" y="218"/>
      <point x="134" y="225"/>
      <point x="101" y="228" type="curve"/>
      <point x="47.0" y="112.0" type="line"/>
      <point x="77" y="77"/>
      <point x="126" y="48"/>
      <point x="176" y="33" type="curve"/>
      <point x="162" y="-63.0" type="line"/>
      <point x="162" y="-79" type="line"/>
    </contour>
  </outline>
</glyph>
<glyph name="uni0A1E" format="1">
  <advance width="651"/>
  <unicode hex="0A1E"/>
  <outline>
    <contour>
      <point x="471" y="680" type="move" name="abvm_bindu"/>
    </contour>
    <contour>
      <point x="411" y="0" type="move" name="blwm"/>
    </contour>
    <contour>
      <point x="471" y="690" type="move" name="abvm_candra"/>
    </contour>
    <contour>
      <point x="401" y="30" type="move" name="blwm_caret_1"/>
    </contour>
    <contour>
      <point x="102" y="-44" type="move" name="blwm_nukta"/>
    </contour>
    <contour>
      <point x="491" y="670" type="move" name="abvm"/>
    </contour>
    <contour>
      <point x="361.0" y="493.0" type="line"/>
      <point x="285.33790546" y="493.0"/>
      <point x="236.813613505" y="517.490212089"/>
      <point x="220.27363" y="552" type="curve"/>
      <point x="408.0" y="552" type="line"/>
      <point x="408.0" y="493.0" type="line"/>
    </contour>
    <contour>
      <point x="591" y="8" type="curve"/>
      <point x="556" y="140" type="line"/>
      <point x="509" y="132"/>
      <point x="459" y="125"/>
      <point x="405" y="125" type="curve" smooth="yes"/>
      <point x="320" y="125"/>
      <point x="274" y="142"/>
      <point x="274" y="184" type="curve" smooth="yes"/>
      <point x="274" y="196.0" type="line"/>
      <point x="539" y="196.0" type="line"/>
      <point x="543" y="311" type="line"/>
      <point x="240.0" y="311" type="line"/>
      <point x="214" y="311"/>
      <point x="200" y="328"/>
      <point x="200" y="343" type="curve" smooth="yes"/>
      <point x="200" y="355"/>
      <point x="209" y="366"/>
      <point x="227" y="366" type="curve"/>
      <point x="583" y="366.0" type="line"/>
      <point x="583" y="552" type="line"/>
      <point x="651" y="552" type="line"/>
      <point x="651" y="692" type="line"/>
      <point x="0" y="692" type="line"/>
      <point x="0" y="552" type="line"/>
      <point x="45.86877" y="552" type="line"/>
      <point x="58.4519759058" y="526.58661558"/>
      <point x="85.6885584276" y="502.974479859"/>
      <point x="124.40201" y="483.97732" type="curve"/>
      <point x="61.8296648094" y="464.620831421"/>
      <point x="31.0" y="416.589050219"/>
      <point x="31.0" y="365.0" type="curve" smooth="yes"/>
      <point x="31.0" y="316.00936057"/>
      <point x="59.1259697475" y="263.64360477"/>
      <point x="114.0" y="230.42955" type="curve"/>
      <point x="114.0" y="201.0" type="line" smooth="yes"/>
      <point x="114" y="70"/>
      <point x="232" y="-15"/>
      <point x="424" y="-15" type="curve" smooth="yes"/>
      <point x="486" y="-15"/>
      <point x="544" y="-6"/>
    </contour>
  </outline>
</glyph>
<glyph name="uni0A26" format="1">
  <advance width="700"/>
  <unicode hex="0A26"/>
  <outline>
    <contour>
      <point x="565" y="680" type="move" name="abvm_bindu"/>
    </contour>
    <contour>
      <point x="461" y="0" type="move" name="blwm"/>
    </contour>
    <contour>
      <point x="565" y="690" type="move" name="abvm_candra"/>
    </contour>
    <contour>
      <point x="465" y="30" type="move" name="blwm_caret_1"/>
    </contour>
    <contour>
      <point x="114" y="0" type="move" name="blwm_nukta"/>
    </contour>
    <contour>
      <point x="545" y="670" type="move" name="abvm"/>
    </contour>
    <contour>
      <point x="660" y="28" type="curve"/>
      <point x="625" y="160" type="line"/>
      <point x="572" y="142"/>
      <point x="515" y="127"/>
      <point x="458" y="127" type="curve" smooth="yes"/>
      <point x="362" y="127"/>
      <point x="288" y="164"/>
      <point x="288" y="258" type="curve" smooth="yes"/>
      <point x="288" y="299" type="line"/>
      <point x="632" y="299" type="line"/>
      <point x="632" y="552" type="line"/>
      <point x="700.0" y="552" type="line"/>
      <point x="700.0" y="692" type="line"/>
      <point x="0" y="692" type="line"/>
      <point x="0" y="552" type="line"/>
      <point x="457.0" y="552" type="line"/>
      <point x="457.0" y="439.0" type="line"/>
      <point x="258.13608" y="439.0" type="line"/>
      <point x="211.40825938" y="463.185767014"/>
      <point x="142.899785975" y="477.0"/>
      <point x="44.0" y="477.0" type="curve"/>
      <point x="17" y="344" type="line"/>
      <point x="46" y="328"/>
      <point x="84" y="317"/>
      <point x="123" y="311" type="curve"/>
      <point x="123.0" y="275" type="line" smooth="yes"/>
      <point x="123" y="104"/>
      <point x="289" y="-15"/>
      <point x="471" y="-15" type="curve" smooth="yes"/>
      <point x="542" y="-15"/>
      <point x="608" y="1"/>
    </contour>
  </outline>
</glyph>
<glyph name="uni0A28" format="1">
  <advance width="670"/>
  <unicode hex="0A28"/>
  <outline>
    <contour>
      <point x="509" y="680" type="move" name="abvm_bindu"/>
    </contour>
    <contour>
      <point x="418" y="2" type="move" name="blwm"/>
    </contour>
    <contour>
      <point x="336" y="690" type="move" name="abvm_candra"/>
    </contour>
    <contour>
      <point x="335" y="30" type="move" name="blwm_caret_1"/>
    </contour>
    <contour>
      <point x="38" y="-40" type="move" name="blwm_nukta"/>
    </contour>
    <contour>
      <point x="509" y="670" type="move" name="abvm"/>
    </contour>
    <contour>
      <point x="646" y="225" type="curve" smooth="yes"/>
      <point x="646.0" y="351.565769681"/>
      <point x="544.631258857" y="429.421884527"/>
      <point x="422.0" y="454.29363" type="curve"/>
      <point x="422.0" y="552" type="line"/>
      <point x="670" y="552" type="line"/>
      <point x="670" y="692" type="line"/>
      <point x="0" y="692" type="line"/>
      <point x="0" y="552" type="line"/>
      <point x="248.0" y="552" type="line"/>
      <point x="248.0" y="454.7441" type="line"/>
      <point x="124.579370519" y="430.413508271"/>
      <point x="24.0" y="352.685941809"/>
      <point x="24.0" y="227.0" type="curve" smooth="yes"/>
      <point x="24" y="91"/>
      <point x="143" y="11"/>
      <point x="278" y="-11" type="curve"/>
      <point x="294" y="131" type="line"/>
      <point x="240" y="142"/>
      <point x="201" y="176"/>
      <point x="201" y="225" type="curve" smooth="yes"/>
      <point x="201" y="287"/>
      <point x="263" y="321"/>
      <point x="335" y="321" type="curve" smooth="yes"/>
      <point x="407" y="321"/>
      <point x="469" y="287"/>
      <point x="469" y="225" type="curve" smooth="yes"/>
      <point x="469" y="177"/>
      <point x="430" y="143"/>
      <point x="376" y="131" type="curve"/>
      <point x="392.0" y="-11.0" type="line"/>
      <point x="531" y="6"/>
      <point x="646" y="91"/>
    </contour>
  </outline>
</glyph>
<glyph name="uni0A2B" format="1">
  <advance width="649"/>
  <unicode hex="0A2B"/>
  <outline>
    <contour>
      <point x="491" y="680" type="move" name="abvm_bindu"/>
    </contour>
    <contour>
      <point x="378" y="0" type="move" name="blwm"/>
    </contour>
    <contour>
      <point x="491" y="690" type="move" name="abvm_candra"/>
    </contour>
    <contour>
      <point x="356" y="30" type="move" name="blwm_caret_1"/>
    </contour>
    <contour>
      <point x="61" y="-40" type="move" name="blwm_nukta"/>
    </contour>
    <contour>
      <point x="471" y="670" type="move" name="abvm"/>
    </contour>
    <contour>
      <point x="627" y="158" type="curve" smooth="yes"/>
      <point x="627" y="251"/>
      <point x="531" y="298"/>
      <point x="427" y="298" type="curve" smooth="yes"/>
      <point x="330.604716064" y="298.0"/>
      <point x="224.938451772" y="258.387629391"/>
      <point x="185.05475" y="178.35854" type="curve"/>
      <point x="176.102229942" y="192.78602283"/>
      <point x="171.0" y="209.361709618"/>
      <point x="171.0" y="228.0" type="curve" smooth="yes"/>
      <point x="171" y="285"/>
      <point x="220" y="340"/>
      <point x="325" y="340" type="curve" smooth="yes"/>
      <point x="558" y="340" type="line"/>
      <point x="558" y="552" type="line"/>
      <point x="649" y="552" type="line"/>
      <point x="649" y="692" type="line"/>
      <point x="0" y="692" type="line"/>
      <point x="0" y="552" type="line"/>
      <point x="383.0" y="552" type="line"/>
      <point x="383.0" y="480.0" type="line"/>
      <point x="311" y="480.0" type="line" smooth="yes"/>
      <point x="117" y="480"/>
      <point x="25" y="368"/>
      <point x="25" y="253" type="curve" smooth="yes"/>
      <point x="25" y="122"/>
      <point x="144" y="-14"/>
      <point x="366" y="-14" type="curve" smooth="yes"/>
      <point x="540" y="-14"/>
      <point x="627" y="69"/>
    </contour>
    <contour>
      <point x="354" y="106" type="curve" smooth="yes"/>
      <point x="322.287160164" y="106.0"/>
      <point x="289.939486209" y="111.332606595"/>
      <point x="261.43587" y="121.83366" type="curve"/>
      <point x="294.349398421" y="164.260833872"/>
      <point x="366.883690911" y="190.0"/>
      <point x="417.0" y="190.0" type="curve" smooth="yes"/>
      <point x="448" y="190"/>
      <point x="471" y="180"/>
      <point x="471" y="159" type="curve" smooth="yes"/>
      <point x="471" y="129"/>
      <point x="420" y="106"/>
    </contour>
  </outline>
</glyph>
<glyph name="uni0A66" format="1">
  <advance width="765"/>
  <unicode hex="0A66"/>
  <outline>
    <contour>
      <point x="713" y="342" type="curve" smooth="yes"/>
      <point x="713" y="502"/>
      <point x="594" y="651"/>
      <point x="377" y="651" type="curve" smooth="yes"/>
      <point x="165" y="651"/>
      <point x="52" y="509"/>
      <point x="52" y="353" type="curve" smooth="yes"/>
      <point x="52" y="193"/>
      <point x="171" y="43"/>
      <point x="390" y="43" type="curve" smooth="yes"/>
      <point x="599" y="43"/>
      <point x="713" y="186"/>
    </contour>
    <contour>
      <point x="228" y="342" type="curve" smooth="yes"/>
      <point x="228" y="447"/>
      <point x="304" y="509"/>
      <point x="388" y="509" type="curve" smooth="yes"/>
      <point x="467" y="509"/>
      <point x="537" y="452"/>
      <point x="537" y="349" type="curve" smooth="yes"/>
      <point x="537" y="244"/>
      <point x="462" y="184"/>
      <point x="379" y="184" type="curve" smooth="yes"/>
      <point x="299" y="184"/>
      <point x="228" y="242"/>
    </contour>
  </outline>
</glyph>
